#!OML:ASF H:\GeneralSubjects\Female5\Project 1\Capture day 1\Session 1\Female5.ASF
:FULLY-SPECIFIED
:DEGREES
33
root 44.0913 16.0664 3.59431 169.327 -83.7296 -157.748
lowerback 7.05946 0.887005 1.74761
upperback -8.49594 1.37876 1.25971
thorax -13.2214 0.478342 0.169146
lowerneck -19.3997 -4.9941 -2.56582
upperneck 29.1456 -6.54895 -1.22771
head 13.0311 -3.5378 -1.18435
rclavicle -8.80865e-015 -1.23246e-014
rhumerus -49.842 17.2999 -85.2967
rradius 37.6749
rwrist -16.7159
rhand -20.5161 -15.5145
rfingers 7.12502
rthumb 5.84158 -45.414
lclavicle -8.80865e-015 -1.23246e-014
lhumerus -46.2476 8.07603 69.1217
lradius 38.4101
lwrist 15.5154
lhand -5.87634 29.8794
lfingers 7.12502
lthumb 19.9512 58.8752
rfemur 2.14748 29.0282 33.2742
rtibia -11.1743
rfoot -19.3112 -29.2885
rtoes -2.85442
lfemur -2.50894 -30.9031 -27.8636
ltibia -2.12915
lfoot -22.0821 30.5038
ltoes -55.8821
34
root 44.0849 16.0644 3.59606 169.107 -83.7097 -157.515
lowerback 6.98998 0.870916 1.77005
upperback -8.51041 1.35838 1.27921
thorax -13.1951 0.467108 0.182722
lowerneck -19.2667 -4.96472 -2.69023
upperneck 28.9896 -6.50772 -1.07746
head 12.9508 -3.51308 -1.08999
rclavicle -2.21148e-015 1.23246e-014
rhumerus -49.7984 17.2734 -85.1948
rradius 37.6826
rwrist -16.3831
rhand -20.5668 -17.5678
rfingers 7.12502
rthumb 5.79259 -47.4686
lclavicle -2.21148e-015 1.23246e-014
lhumerus -46.3643 7.97968 69.2903
lradius 38.3551
lwrist 14.8855
lhand -6.82417 29.4794
lfingers 7.12502
lthumb 19.0399 58.5675
rfemur 2.04495 29.0513 33.25
rtibia -11.0291
rfoot -19.4089 -29.2813
rtoes -2.83359
lfemur -2.52333 -30.7825 -27.8444
ltibia -2.0893
lfoot -22.2433 30.2984
ltoes -55.8614
35
root 44.0814 16.0628 3.59652 168.533 -83.6512 -156.946
lowerback 6.97075 0.875954 1.77456
upperback -8.5154 1.36998 1.33069
thorax -13.1903 0.474935 0.234883
lowerneck -19.2697 -4.96134 -2.72012
upperneck 29.0038 -6.49178 -1.08392
head 12.9582 -3.51052 -1.08547
rclavicle -1.66109e-014 -1.47101e-014
rhumerus -49.7629 17.2411 -85.0481
rradius 37.6551
rwrist -16.048
rhand -18.8759 -15.5696
rfingers 7.12502
rthumb 7.42495 -45.4193
lclavicle -1.66109e-014 -1.47101e-014
lhumerus -46.4184 7.88918 69.4851
lradius 38.2274
lwrist 14.2445
lhand -7.59753 28.6334
lfingers 7.12502
lthumb 18.2961 57.793
rfemur 1.9879 29.0985 33.3292
rtibia -10.8879
rfoot -19.5865 -29.0925
rtoes -2.059
lfemur -2.63064 -30.2285 -27.7221
ltibia -1.92808
lfoot -22.6459 29.1118
ltoes -56.0697
36
root 44.0776 16.0615 3.59679 168.444 -83.5948 -156.86
lowerback 6.93376 0.885499 1.70061
upperback -8.51338 1.37686 1.38082
thorax -13.1679 0.488369 0.330455
lowerneck -19.2398 -4.98219 -2.76786
upperneck 28.9208 -6.50796 -1.06237
head 12.921 -3.51926 -1.06844
rclavicle 3.16813e-015 -7.7526e-015
rhumerus -49.7139 17.2604 -84.943
rradius 37.6613
rwrist -15.8714
rhand -17.3755 -13.7468
rfingers 7.12502
rthumb 8.873 -43.5403
lclavicle 3.16813e-015 -7.7526e-015
lhumerus -46.4417 7.96772 69.5244
lradius 38.1348
lwrist 13.9654
lhand -7.74026 28.1003
lfingers 7.12502
lthumb 18.1587 57.2727
rfemur 1.94901 29.1543 33.3568
rtibia -10.7981
rfoot -19.8918 -28.9941
rtoes -1.5564
lfemur -2.65242 -29.9179 -27.6947
ltibia -1.87771
lfoot -21.0569 30.0108
ltoes -57.8394
37
root 44.0729 16.0594 3.59789 168.841 -83.5739 -157.239
lowerback 6.85149 0.887137 1.58284
upperback -8.51484 1.36421 1.41845
thorax -13.1219 0.495977 0.440896
lowerneck -19.159 -5.03216 -2.84099
upperneck 28.7567 -6.55564 -1.03768
head 12.8416 -3.54397 -1.04709
rclavicle -2.33572e-015 5.76476e-015
rhumerus -49.9907 17.9025 -85.5589
rradius 38.5659
rwrist -17.5698
rhand -20.0612 -17.9191
rfingers 7.12502
rthumb 6.28076 -47.806
lclavicle -2.33572e-015 5.76476e-015
lhumerus -46.46 8.19355 69.4204
lradius 38.0592
lwrist 13.9984
lhand -8.49858 30.202
lfingers 7.12502
lthumb 17.4291 59.4406
rfemur 1.89189 29.1853 33.2928
rtibia -10.7325
rfoot -19.831 -29.0208
rtoes -1.8533
lfemur -2.65056 -29.9595 -27.7663
ltibia -1.86598
lfoot -20.2826 30.5933
ltoes -58.5225
38
root 44.0691 16.0584 3.59962 168.88 -83.5874 -157.273
lowerback 6.8192 0.875906 1.55344
upperback -8.52772 1.34502 1.43437
thorax -13.1179 0.490203 0.478773
lowerneck -19.0942 -5.06058 -2.87335
upperneck 28.6857 -6.58247 -1.04523
head 12.8005 -3.56071 -1.04478
rclavicle -1.963e-015 3.77691e-015
rhumerus -49.7093 17.5353 -84.9839
rradius 37.7845
rwrist -15.8987
rhand -21.8882 -17.0838
rfingers 7.12502
rthumb 4.51669 -47.0157
lclavicle -1.963e-015 3.77691e-015
lhumerus -46.4835 8.15919 69.5231
lradius 37.9045
lwrist 13.4708
lhand -9.49227 29.9642
lfingers 7.12502
lthumb 16.4725 59.2849
rfemur 1.8462 29.1709 33.2566
rtibia -10.6315
rfoot -19.801 -28.9634
rtoes -2.03291
lfemur -2.74344 -29.9156 -27.7878
ltibia -1.71535
lfoot -20.4326 30.4134
ltoes -58.1192
39
root 44.068 16.0588 3.60039 168.586 -83.4986 -157.009
lowerback 6.86399 0.878585 1.57101
upperback -8.53294 1.35519 1.46332
thorax -13.1527 0.494701 0.498461
lowerneck -19.0357 -5.05192 -2.88609
upperneck 28.6681 -6.56878 -1.04537
head 12.7817 -3.55728 -1.0381
rclavicle -3.34207e-015 1.59028e-015
rhumerus -49.747 17.6626 -85.0414
rradius 37.8848
rwrist -16.032
rhand -23.588 -18.4966
rfingers 7.12502
rthumb 2.87521 -48.457
lclavicle -3.34207e-015 1.59028e-015
lhumerus -46.5967 7.98267 69.6875
lradius 37.9383
lwrist 13.0594
lhand -10.2098 29.6496
lfingers 7.12502
lthumb 15.7816 59.0262
rfemur 1.76004 29.2405 33.2838
rtibia -10.4104
rfoot -19.7109 -28.8354
rtoes -2.14032
lfemur -2.80138 -29.7066 -27.7257
ltibia -1.58579
lfoot -20.8936 29.8991
ltoes -57.5965
40
root 44.0674 16.0576 3.60088 168.538 -83.4089 -156.969
lowerback 6.8409 0.887283 1.52462
upperback -8.51895 1.36439 1.50334
thorax -13.1241 0.506246 0.566787
lowerneck -19.0787 -5.01123 -2.84178
upperneck 28.7527 -6.50104 -1.13302
head 12.8191 -3.53538 -1.07161
rclavicle 1.42131e-014 -3.57812e-015
rhumerus -49.7708 17.8372 -85.1268
rradius 38.1004
rwrist -16.324
rhand -22.4655 -17.4383
rfingers 7.12502
rthumb 3.95928 -47.3813
lclavicle 1.42131e-014 -3.57812e-015
lhumerus -46.7329 7.75666 69.8963
lradius 38.1372
lwrist 12.9393
lhand -10.4782 29.2837
lfingers 7.12502
lthumb 15.5231 58.6806
rfemur 1.64433 29.319 33.2648
rtibia -10.2289
rfoot -19.5981 -28.7773
rtoes -2.35659
lfemur -2.72549 -29.8934 -27.7214
ltibia -1.63963
lfoot -21.2721 29.9444
ltoes -57.3754
41
root 44.0678 16.0574 3.60172 168.228 -83.3753 -156.655
lowerback 6.82807 0.887668 1.49806
upperback -8.51185 1.36601 1.55234
thorax -13.1099 0.512573 0.635177
lowerneck -19.1644 -4.95822 -2.83738
upperneck 28.91 -6.4173 -1.18159
head 12.8985 -3.50566 -1.08482
rclavicle 1.26104e-014 9.74045e-015
rhumerus -49.9469 18.317 -85.544
rradius 38.698
rwrist -17.5205
rhand -20.5251 -16.9812
rfingers 7.12502
rthumb 5.83286 -46.8809
lclavicle 1.26104e-014 9.74045e-015
lhumerus -46.7895 7.73178 69.9879
lradius 38.2128
lwrist 12.8764
lhand -10.5282 29.1102
lfingers 7.12502
lthumb 15.475 58.5108
rfemur 1.57784 29.3402 33.2777
rtibia -10.1664
rfoot -19.1193 -28.6374
rtoes -1.89599
lfemur -2.73282 -29.8957 -27.6942
ltibia -1.55486
lfoot -21.4833 29.8292
ltoes -57.6091
42
root 44.0699 16.0578 3.60277 167.346 -83.2911 -155.757
lowerback 6.84708 0.899628 1.5607
upperback -8.52462 1.39729 1.62053
thorax -13.1378 0.524713 0.669293
lowerneck -19.1213 -4.94101 -2.9334
upperneck 28.9334 -6.39633 -1.08474
head 12.9072 -3.49492 -1.02798
rclavicle -1.27222e-014 9.14409e-015
rhumerus -50.2154 18.9473 -86.1421
rradius 39.4592
rwrist -19.2564
rhand -20.0943 -18.5009
rfingers 7.12502
rthumb 6.24876 -48.3887
lclavicle -1.27222e-014 9.14409e-015
lhumerus -46.7957 7.88331 69.9499
lradius 38.1339
lwrist 12.729
lhand -10.4884 28.9132
lfingers 7.12502
lthumb 15.5133 58.3108
rfemur 1.4812 29.4003 33.3779
rtibia -10.0567
rfoot -18.5578 -28.5369
rtoes -2.01265
lfemur -2.83646 -29.6258 -27.5227
ltibia -1.39542
lfoot -22.1634 29.0762
ltoes -57.5682
